<svg width="24" height="24" viewBox="0 0 24 24" fill="none" xmlns="http://www.w3.org/2000/svg">
<path d="M20.16 6.84024C17.28 2.40024 11.4 1.08024 6.83998 3.84024C2.39998 6.60024 0.95998 12.6002 3.83998 17.0402L4.07998 17.4002L3.11998 21.0002L6.71998 20.0402L7.07998 20.2802C8.63998 21.1202 10.32 21.6002 12 21.6002C13.8 21.6002 15.6 21.1202 17.16 20.1602C21.6 17.2802 22.92 11.4002 20.16 6.84024ZM17.64 16.0802C17.16 16.8002 16.56 17.2802 15.72 17.4002C15.24 17.4002 14.64 17.6402 12.24 16.6802C10.2 15.7202 8.51998 14.1602 7.31998 12.3602C6.59998 11.5202 6.23998 10.4402 6.11998 9.36024C6.11998 8.40024 6.47998 7.56024 7.07998 6.96024C7.31998 6.72024 7.55998 6.60024 7.79998 6.60024H8.39998C8.63998 6.60024 8.87998 6.60024 8.99998 7.08024C9.23998 7.68024 9.83998 9.12024 9.83998 9.24024C9.95998 9.36024 9.95998 9.60024 9.83998 9.72024C9.95998 9.96024 9.83998 10.2002 9.71998 10.3202C9.59998 10.4402 9.47998 10.6802 9.35998 10.8002C9.11998 10.9202 8.99998 11.1602 9.11998 11.4002C9.59998 12.1202 10.2 12.8402 10.8 13.4402C11.52 14.0402 12.24 14.5202 13.08 14.8802C13.32 15.0002 13.56 15.0002 13.68 14.7602C13.8 14.5202 14.4 13.9202 14.64 13.6802C14.88 13.4402 15 13.4402 15.24 13.5602L17.16 14.5202C17.4 14.6402 17.64 14.7602 17.76 14.8802C17.88 15.2402 17.88 15.7202 17.64 16.0802Z" fill="#4B5DF8"/>
</svg>
