<svg width="24" height="24" viewBox="0 0 24 24" fill="none" xmlns="http://www.w3.org/2000/svg">
<path d="M6.22499 4.81196C6.03639 4.6298 5.78378 4.52901 5.52159 4.53129C5.25939 4.53357 5.00858 4.63874 4.82317 4.82414C4.63776 5.00955 4.53259 5.26036 4.53031 5.52256C4.52804 5.78476 4.62883 6.03736 4.81099 6.22596L10.586 12.001L4.80999 17.776C4.71448 17.8682 4.6383 17.9786 4.58589 18.1006C4.53348 18.2226 4.50589 18.3538 4.50474 18.4866C4.50358 18.6193 4.52889 18.751 4.57917 18.8739C4.62945 18.9968 4.7037 19.1085 4.79759 19.2024C4.89149 19.2963 5.00314 19.3705 5.12603 19.4208C5.24893 19.4711 5.38061 19.4964 5.51339 19.4952C5.64617 19.4941 5.77739 19.4665 5.89939 19.4141C6.0214 19.3617 6.13174 19.2855 6.22399 19.19L12 13.415L17.775 19.19C17.9636 19.3721 18.2162 19.4729 18.4784 19.4706C18.7406 19.4684 18.9914 19.3632 19.1768 19.1778C19.3622 18.9924 19.4674 18.7416 19.4697 18.4794C19.4719 18.2172 19.3711 17.9646 19.189 17.776L13.414 12.001L19.189 6.22596C19.3711 6.03736 19.4719 5.78476 19.4697 5.52256C19.4674 5.26036 19.3622 5.00955 19.1768 4.82414C18.9914 4.63874 18.7406 4.53357 18.4784 4.53129C18.2162 4.52901 17.9636 4.6298 17.775 4.81196L12 10.587L6.22499 4.81096V4.81196Z" fill="#4F4F4F"/>
</svg>
