<svg width="24" height="24" viewBox="0 0 24 24" fill="none" xmlns="http://www.w3.org/2000/svg">
<path d="M12 20C14.1217 20 16.1566 19.1571 17.6569 17.6569C19.1571 16.1566 20 14.1217 20 12C20 9.87827 19.1571 7.84344 17.6569 6.34315C16.1566 4.84285 14.1217 4 12 4C9.87827 4 7.84344 4.84285 6.34315 6.34315C4.84285 7.84344 4 9.87827 4 12C4 14.1217 4.84285 16.1566 6.34315 17.6569C7.84344 19.1571 9.87827 20 12 20ZM12 22C6.477 22 2 17.523 2 12C2 6.477 6.477 2 12 2C17.523 2 22 6.477 22 12C22 17.523 17.523 22 12 22Z" fill="#4B5DF8"/>
<path d="M15.644 11.4045C15.656 9.91245 14.425 8.54445 12.9 8.35545L12.8 8.34045C12.7235 8.32527 12.6459 8.31657 12.568 8.31445C12.255 8.31445 12.172 8.54045 12.15 8.67545C12.1375 8.73152 12.1364 8.78952 12.1467 8.84602C12.157 8.90253 12.1785 8.9564 12.21 9.00445C12.314 9.14945 12.496 9.17445 12.642 9.19645C12.685 9.20245 12.726 9.20745 12.759 9.21645C14.13 9.53145 14.592 10.0285 14.817 11.4315C14.823 11.4665 14.825 11.5085 14.827 11.5535C14.837 11.7205 14.858 12.0695 15.222 12.0695C15.252 12.0695 15.284 12.0675 15.318 12.0615C15.657 12.0085 15.646 11.6895 15.641 11.5365C15.6385 11.4995 15.6385 11.4624 15.641 11.4255C15.6421 11.4188 15.6428 11.4122 15.643 11.4055L15.644 11.4045Z" fill="#4B5DF8"/>
<path d="M12.48 7.80689C12.52 7.80989 12.56 7.81289 12.591 7.81789C14.841 8.17589 15.877 9.27589 16.164 11.6179C16.169 11.6579 16.169 11.7059 16.17 11.7579C16.173 11.9409 16.179 12.3209 16.575 12.3289H16.587C16.6414 12.3318 16.6957 12.323 16.7464 12.3032C16.7971 12.2833 16.843 12.2529 16.881 12.2139C17.004 12.0809 16.996 11.8839 16.989 11.7239C16.987 11.6859 16.985 11.6489 16.986 11.6169C17.014 9.22189 15.006 7.04989 12.688 6.96989L12.66 6.97089C12.6511 6.97221 12.642 6.97287 12.633 6.97289C12.61 6.97289 12.581 6.97089 12.551 6.96889C12.5111 6.96524 12.4711 6.96324 12.431 6.96289C12.062 6.96289 11.992 7.23289 11.983 7.39489C11.963 7.76789 12.312 7.79489 12.48 7.80689ZM16.055 14.6439C16.0069 14.6062 15.9592 14.5678 15.912 14.5289C15.666 14.3249 15.404 14.1369 15.152 13.9549C15.0993 13.917 15.0466 13.879 14.994 13.8409C14.67 13.6069 14.379 13.4919 14.104 13.4919C13.734 13.4919 13.411 13.7039 13.144 14.1209C13.026 14.3049 12.882 14.3949 12.706 14.3949C12.5831 14.3905 12.4627 14.3595 12.353 14.3039C11.308 13.8139 10.561 13.0639 10.134 12.0739C9.92801 11.5939 9.99401 11.2819 10.358 11.0269C10.564 10.8829 10.948 10.6139 10.921 10.0989C10.891 9.51389 9.64001 7.75389 9.11301 7.55389C8.8882 7.46905 8.6403 7.46834 8.41501 7.55189C7.81001 7.76189 7.37501 8.13189 7.15801 8.61889C6.94801 9.09089 6.95801 9.64389 7.18601 10.2199C7.84301 11.8859 8.76601 13.3379 9.93201 14.5359C11.072 15.7089 12.474 16.6689 14.098 17.3909C14.244 17.4559 14.398 17.4909 14.51 17.5169L14.605 17.5409C14.618 17.5446 14.6315 17.5466 14.645 17.5469H14.658C15.422 17.5469 16.339 16.8269 16.621 16.0049C16.868 15.2849 16.417 14.9299 16.055 14.6449V14.6439ZM12.818 9.70989C12.688 9.71289 12.415 9.71989 12.319 10.0059C12.275 10.1399 12.28 10.2559 12.335 10.3509C12.416 10.4909 12.572 10.5339 12.713 10.5569C13.225 10.6419 13.489 10.9349 13.541 11.4769C13.566 11.7309 13.731 11.9069 13.943 11.9069C13.959 11.9072 13.9751 11.9066 13.991 11.9049C14.246 11.8729 14.369 11.6799 14.358 11.3299C14.362 10.9639 14.177 10.5499 13.862 10.2199C13.546 9.88789 13.165 9.70089 12.818 9.70989Z" fill="#4B5DF8"/>
</svg>
